{"accessors" : [{"bufferView" : 0, "byteOffset" : 0, "componentType" : 5123, "count" : 24396, "type" : "SCALAR", "max" : [10379], "min" : [0]}, {"bufferView" : 1, "byteOffset" : 0, "componentType" : 5126, "count" : 10380, "type" : "VEC3", "max" : [14010, 6038.130859375, 10], "min" : [0, -45, -8010]}, {"bufferView" : 1, "byteOffset" : 12, "componentType" : 5126, "count" : 10380, "type" : "VEC2", "max" : [1, -0], "min" : [0, -1]}, {"bufferView" : 1, "byteOffset" : 20, "componentType" : 5126, "count" : 10380, "type" : "VEC3", "max" : [1.0000044107437134, 1.0000044107437134, 1.0000044107437134], "min" : [-1.0000044107437134, -1.0000044107437134, -1.0000044107437134]}], "asset" : {"generator" : "Aspose.3D 21.1", "version" : "2.0"}, "buffers" : [{"uri" : "buffer.bin", "byteLength" : 829472}], "bufferViews" : [{"buffer" : 0, "byteOffset" : 0, "byteLength" : 48792, "target" : 34963}, {"buffer" : 0, "byteOffset" : 48796, "byteLength" : 780672, "byteStride" : 32, "target" : 34962}], "meshes" : [{"primitives" : [{"attributes" : {"POSITION" : 1, "TEXCOORD_0" : 2, "NORMAL" : 3}, "indices" : 0, "mode" : 4}]}], "nodes" : [{"mesh" : 0, "name" : ""}], "scene" : 0, "scenes" : [{"nodes" : [0]}]}